<svg xmlns="http://www.w3.org/2000/svg" width="60" height="80" viewBox="0 0 60 80" preserveAspectRatio="none">
  <defs>
    <linearGradient id="rock" x1="0" y1="0" x2="1" y2="1">
      <stop offset="0" stop-color="#8a7a6b"/>
      <stop offset="0.5" stop-color="#6f6256"/>
      <stop offset="1" stop-color="#4f463f"/>
    </linearGradient>
  </defs>
  <path d="M8 18 C14 8 28 6 40 12 C52 18 56 30 52 42 C48 54 40 66 30 70 C20 74 10 70 6 60 C2 50 2 34 8 18 Z" fill="url(#rock)"/>
  <ellipse cx="22" cy="28" rx="5" ry="4" fill="#3e372f"/>
  <ellipse cx="38" cy="40" rx="4" ry="3" fill="#3e372f"/>
  <ellipse cx="28" cy="54" rx="6" ry="5" fill="#3e372f"/>
  <path d="M14 24 C18 22 20 20 22 18" stroke="#a09182" stroke-width="1.2" fill="none"/>
  <path d="M34 34 C36 32 38 30 40 28" stroke="#a09182" stroke-width="1.2" fill="none"/>
</svg>
